{"glyphs":{"0":{"ha":1370,"x_min":0,"x_max":1215,"o":"m 868 347 l 868 1042 l 347 1042 l 347 347 l 868 347 m 0 0 l 0 1042 l 347 1389 l 1215 1389 l 1215 347 l 868 0 l 0 0 z "},"1":{"ha":849,"x_min":0,"x_max":694,"o":"m 0 0 l 0 174 l 174 347 l 174 1042 l 0 1042 l 0 1389 l 347 1389 l 521 1215 l 521 347 l 694 174 l 694 0 l 0 0 z "},"2":{"ha":1370,"x_min":0,"x_max":1215,"o":"m 0 0 l 0 694 l 174 868 l 868 868 l 868 1042 l 0 1042 l 0 1389 l 1042 1389 l 1215 1215 l 1215 694 l 1042 521 l 347 521 l 347 347 l 1215 347 l 1215 0 l 0 0 z "},"3":{"ha":1370,"x_min":0,"x_max":1215,"o":"m 0 0 l 0 347 l 868 347 l 868 521 l 0 521 l 0 868 l 868 868 l 868 1042 l 0 1042 l 0 1389 l 1042 1389 l 1215 1215 l 1215 174 l 1042 0 l 0 0 z "},"4":{"ha":1370,"x_min":0,"x_max":1215,"o":"m 1042 0 l 868 174 l 868 521 l 174 521 l 0 694 l 0 1389 l 347 1389 l 347 868 l 868 868 l 868 1389 l 1215 1389 l 1215 0 l 1042 0 z "},"5":{"ha":1370,"x_min":0,"x_max":1215,"o":"m 174 0 l 0 174 l 0 347 l 868 347 l 868 521 l 0 521 l 0 1389 l 1042 1389 l 1215 1215 l 1215 1042 l 347 1042 l 347 868 l 1215 868 l 1215 0 l 174 0 z "},"6":{"ha":1370,"x_min":0,"x_max":1215,"o":"m 868 347 l 868 521 l 347 521 l 347 347 l 868 347 m 174 0 l 0 174 l 0 1042 l 347 1389 l 1215 1389 l 1215 1042 l 347 1042 l 347 868 l 1215 868 l 1215 174 l 1042 0 l 174 0 z "},"7":{"ha":1370,"x_min":0,"x_max":1215,"o":"m 868 0 l 868 1042 l 0 1042 l 0 1389 l 1042 1389 l 1215 1215 l 1215 0 l 868 0 z "},"8":{"ha":1370,"x_min":0,"x_max":1215,"o":"m 868 347 l 868 521 l 347 521 l 347 347 l 868 347 m 868 868 l 868 1042 l 347 1042 l 347 868 l 868 868 m 174 0 l 0 174 l 0 521 l 174 694 l 0 868 l 0 1215 l 174 1389 l 1042 1389 l 1215 1215 l 1215 868 l 1042 694 l 1215 521 l 1215 174 l 1042 0 l 174 0 z "},"9":{"ha":1370,"x_min":0,"x_max":1215,"o":"m 868 868 l 868 1042 l 347 1042 l 347 868 l 868 868 m 868 0 l 868 521 l 174 521 l 0 694 l 0 1215 l 174 1389 l 1215 1389 l 1215 0 l 868 0 z "}," ":{"ha":1489,"x_min":0,"x_max":0,"o":""},"!":{"ha":675,"x_min":0,"x_max":521,"o":"m 0 0 l 0 347 l 347 347 l 347 0 l 0 0 m 0 521 l 0 1389 l 521 1389 l 347 1215 l 347 521 l 0 521 z "},"#":{"ha":1370,"x_min":0,"x_max":1215,"o":"m 694 521 l 694 868 l 521 868 l 521 521 l 694 521 m 174 0 l 174 174 l 0 174 l 0 521 l 174 521 l 174 868 l 0 868 l 0 1215 l 174 1215 l 347 1389 l 521 1389 l 521 1215 l 694 1215 l 868 1389 l 1042 1389 l 1042 1215 l 1215 1215 l 1215 868 l 1042 868 l 1042 521 l 1215 521 l 1215 174 l 1042 174 l 868 0 l 694 0 l 694 174 l 521 174 l 347 0 l 174 0 z "},"$":{"ha":1370,"x_min":0,"x_max":1215,"o":"m 347 -174 l 347 0 l 174 0 l 0 174 l 0 347 l 868 347 l 868 521 l 0 521 l 0 1389 l 347 1389 l 347 1563 l 694 1563 l 694 1389 l 1042 1389 l 1215 1215 l 1215 1042 l 347 1042 l 347 868 l 1215 868 l 1215 0 l 694 0 l 694 -174 l 347 -174 z "},"+":{"ha":1196,"x_min":0,"x_max":1042,"o":"m 347 174 l 347 521 l 0 521 l 0 694 l 174 868 l 347 868 l 347 1042 l 521 1215 l 694 1215 l 694 868 l 1042 868 l 1042 521 l 694 521 l 694 174 l 347 174 z "},",":{"ha":502,"x_min":0,"x_max":347,"o":"m 0 -174 l 0 347 l 347 347 l 347 174 l 0 -174 l 0 -174 z "},".":{"ha":502,"x_min":0,"x_max":347,"o":"m 0 0 l 0 347 l 347 347 l 347 0 l 0 0 z "},"?":{"ha":1370,"x_min":0,"x_max":1215,"o":"m 347 0 l 347 347 l 694 347 l 694 0 l 347 0 m 347 521 l 347 694 l 521 868 l 868 868 l 868 1042 l 0 1042 l 0 1389 l 1042 1389 l 1215 1215 l 1215 694 l 1042 521 l 347 521 z "},"A":{"ha":1717,"x_min":-87,"x_max":1649,"o":"m -87 0 l 608 1389 l 955 1389 l 1649 0 l 1215 0 l 1128 174 l 521 174 l 694 521 l 955 521 l 781 868 l 347 0 l -87 0 z "},"B":{"ha":1370,"x_min":0,"x_max":1215,"o":"m 868 347 l 868 521 l 347 521 l 347 347 l 868 347 m 868 868 l 868 1042 l 347 1042 l 347 868 l 868 868 m 0 0 l 0 1389 l 1042 1389 l 1215 1215 l 1215 868 l 1128 694 l 1215 521 l 1215 174 l 1042 0 l 0 0 z "},"C":{"ha":1370,"x_min":0,"x_max":1215,"o":"m 174 0 l 0 174 l 0 1215 l 174 1389 l 1215 1389 l 1042 1042 l 347 1042 l 347 347 l 1215 347 l 1215 0 l 174 0 z "},"D":{"ha":1370,"x_min":0,"x_max":1215,"o":"m 868 347 l 868 1042 l 347 1042 l 347 347 l 868 347 m 0 0 l 0 1389 l 1042 1389 l 1215 1215 l 1215 174 l 1042 0 l 0 0 z "},"E":{"ha":1544,"x_min":0,"x_max":1389,"o":"m 0 0 l 0 1389 l 1042 1389 l 1042 1042 l 347 1042 l 347 868 l 1042 868 l 1042 521 l 347 521 l 347 347 l 1042 347 l 1389 0 l 0 0 z "},"F":{"ha":1370,"x_min":0,"x_max":1215,"o":"m 0 0 l 0 1389 l 1215 1389 l 1042 1042 l 347 1042 l 347 868 l 1042 868 l 1042 521 l 347 521 l 347 0 l 0 0 z "},"G":{"ha":1370,"x_min":0,"x_max":1215,"o":"m 174 0 l 0 174 l 0 1215 l 174 1389 l 1215 1389 l 1042 1042 l 347 1042 l 347 347 l 868 347 l 868 694 l 694 868 l 1215 868 l 1215 0 l 174 0 z "},"H":{"ha":1370,"x_min":0,"x_max":1215,"o":"m 0 0 l 0 1389 l 347 1389 l 347 868 l 868 868 l 868 1389 l 1215 1389 l 1215 0 l 868 0 l 868 521 l 347 521 l 347 0 l 0 0 z "},"I":{"ha":502,"x_min":0,"x_max":347,"o":"m 0 0 l 0 1389 l 347 1389 l 347 0 l 0 0 z "},"J":{"ha":1370,"x_min":0,"x_max":1215,"o":"m 174 0 l 0 174 l 0 694 l 347 694 l 347 347 l 868 347 l 868 1042 l 174 1042 l 0 1389 l 1215 1389 l 1215 174 l 1042 0 l 174 0 z "},"K":{"ha":1370,"x_min":0,"x_max":1128,"o":"m 0 0 l 0 1389 l 347 1389 l 347 868 l 521 868 l 781 1389 l 1128 1389 l 781 694 l 1128 0 l 781 0 l 521 521 l 347 521 l 347 0 l 0 0 z "},"L":{"ha":1370,"x_min":0,"x_max":1215,"o":"m 0 0 l 0 1389 l 347 1389 l 347 347 l 1215 347 l 1042 0 l 0 0 z "},"M":{"ha":1544,"x_min":0,"x_max":1389,"o":"m 0 0 l 0 1215 l 174 1389 l 608 1389 l 694 1215 l 781 1389 l 1215 1389 l 1389 1215 l 1389 0 l 1042 0 l 1042 1042 l 868 1042 l 868 0 l 521 0 l 521 1042 l 347 1042 l 347 0 l 0 0 z "},"N":{"ha":1370,"x_min":0,"x_max":1215,"o":"m 0 0 l 0 1389 l 434 1389 l 868 521 l 868 1389 l 1215 1389 l 1215 0 l 781 0 l 347 868 l 347 0 l 0 0 z "},"O":{"ha":1370,"x_min":0,"x_max":1215,"o":"m 868 347 l 868 1042 l 347 1042 l 347 347 l 868 347 m 174 0 l 0 174 l 0 1215 l 174 1389 l 1042 1389 l 1215 1215 l 1215 174 l 1042 0 l 174 0 z "},"P":{"ha":1370,"x_min":0,"x_max":1215,"o":"m 868 868 l 868 1042 l 347 1042 l 347 868 l 868 868 m 0 0 l 0 1389 l 1042 1389 l 1215 1215 l 1215 694 l 1042 521 l 347 521 l 347 0 l 0 0 z "},"Q":{"ha":1370,"x_min":0,"x_max":1215,"o":"m 868 347 l 868 1042 l 347 1042 l 347 347 l 868 347 m 868 -347 l 521 0 l 174 0 l 0 174 l 0 1215 l 174 1389 l 1042 1389 l 1215 1215 l 1215 174 l 1042 0 l 868 0 l 868 -347 l 868 -347 z "},"R":{"ha":1370,"x_min":0,"x_max":1215,"o":"m 0 0 l 0 1389 l 1042 1389 l 1215 1215 l 1215 694 l 1042 521 l 955 521 l 1215 0 l 868 0 l 521 694 l 521 868 l 868 868 l 868 1042 l 347 1042 l 347 0 l 0 0 z "},"S":{"ha":1544,"x_min":0,"x_max":1389,"o":"m 0 0 l 0 347 l 868 347 l 868 521 l 174 521 l 0 694 l 0 1215 l 174 1389 l 1389 1389 l 1215 1042 l 347 1042 l 347 868 l 1215 868 l 1215 347 l 868 0 l 0 0 z "},"T":{"ha":1544,"x_min":0,"x_max":1389,"o":"m 434 0 l 434 1042 l 0 1042 l 0 1389 l 1389 1389 l 1042 1042 l 781 1042 l 781 0 l 434 0 z "},"U":{"ha":1370,"x_min":0,"x_max":1215,"o":"m 174 0 l 0 174 l 0 1389 l 347 1389 l 347 347 l 868 347 l 868 1389 l 1215 1389 l 1215 347 l 1042 0 l 174 0 z "},"V":{"ha":1891,"x_min":0,"x_max":1649,"o":"m 694 0 l 0 1389 l 434 1389 l 825 608 l 1215 1389 l 1649 1389 l 955 0 l 694 0 z "},"W":{"ha":1544,"x_min":0,"x_max":1389,"o":"m 174 0 l 0 174 l 0 1389 l 347 1389 l 347 347 l 521 347 l 521 1389 l 868 1389 l 868 347 l 1042 347 l 1042 1389 l 1389 1389 l 1389 174 l 1215 0 l 781 0 l 694 174 l 608 0 l 174 0 z "},"X":{"ha":1370,"x_min":0,"x_max":1215,"o":"m 0 0 l 347 694 l 0 1389 l 434 1389 l 608 1042 l 781 1389 l 1215 1389 l 868 694 l 1215 0 l 781 0 l 608 347 l 434 0 l 0 0 z "},"Y":{"ha":1370,"x_min":0,"x_max":1215,"o":"m 0 0 l 347 694 l 0 1389 l 434 1389 l 608 1042 l 781 1389 l 1215 1389 l 521 0 l 0 0 z "},"Z":{"ha":1370,"x_min":0,"x_max":1215,"o":"m 0 0 l 521 1042 l 0 1042 l 0 1389 l 1215 1389 l 694 347 l 1215 347 l 1215 0 l 0 0 z "},"a":{"ha":1717,"x_min":-87,"x_max":1649,"o":"m -87 0 l 608 1389 l 955 1389 l 1649 0 l 1215 0 l 1128 174 l 521 174 l 694 521 l 955 521 l 781 868 l 347 0 l -87 0 z "},"b":{"ha":1370,"x_min":0,"x_max":1215,"o":"m 868 347 l 868 521 l 347 521 l 347 347 l 868 347 m 868 868 l 868 1042 l 347 1042 l 347 868 l 868 868 m 0 0 l 0 1389 l 1042 1389 l 1215 1215 l 1215 868 l 1128 694 l 1215 521 l 1215 174 l 1042 0 l 0 0 z "},"c":{"ha":1370,"x_min":0,"x_max":1215,"o":"m 174 0 l 0 174 l 0 1215 l 174 1389 l 1215 1389 l 1042 1042 l 347 1042 l 347 347 l 1215 347 l 1215 0 l 174 0 z "},"d":{"ha":1370,"x_min":0,"x_max":1215,"o":"m 868 347 l 868 1042 l 347 1042 l 347 347 l 868 347 m 0 0 l 0 1389 l 1042 1389 l 1215 1215 l 1215 174 l 1042 0 l 0 0 z "},"e":{"ha":1196,"x_min":0,"x_max":1042,"o":"m 0 0 l 0 1389 l 1042 1389 l 1042 1042 l 347 1042 l 347 868 l 1042 868 l 1042 521 l 347 521 l 347 347 l 1042 347 l 1042 0 l 0 0 z "},"f":{"ha":1370,"x_min":0,"x_max":1215,"o":"m 0 0 l 0 1389 l 1215 1389 l 1042 1042 l 347 1042 l 347 868 l 1042 868 l 1042 521 l 347 521 l 347 0 l 0 0 z "},"g":{"ha":1370,"x_min":0,"x_max":1215,"o":"m 174 0 l 0 174 l 0 1215 l 174 1389 l 1215 1389 l 1042 1042 l 347 1042 l 347 347 l 868 347 l 868 694 l 694 868 l 1215 868 l 1215 0 l 174 0 z "},"h":{"ha":1370,"x_min":0,"x_max":1215,"o":"m 0 0 l 0 1389 l 347 1389 l 347 868 l 868 868 l 868 1389 l 1215 1389 l 1215 0 l 868 0 l 868 521 l 347 521 l 347 0 l 0 0 z "},"i":{"ha":502,"x_min":0,"x_max":347,"o":"m 0 0 l 0 1389 l 347 1389 l 347 0 l 0 0 z "},"j":{"ha":1370,"x_min":0,"x_max":1215,"o":"m 174 0 l 0 174 l 0 694 l 347 694 l 347 347 l 868 347 l 868 1042 l 174 1042 l 0 1389 l 1215 1389 l 1215 174 l 1042 0 l 174 0 z "},"k":{"ha":1370,"x_min":0,"x_max":1128,"o":"m 0 0 l 0 1389 l 347 1389 l 347 868 l 521 868 l 781 1389 l 1128 1389 l 781 694 l 1128 0 l 781 0 l 521 521 l 347 521 l 347 0 l 0 0 z "},"l":{"ha":1370,"x_min":0,"x_max":1215,"o":"m 0 0 l 0 1389 l 347 1389 l 347 347 l 1215 347 l 1042 0 l 0 0 z "},"m":{"ha":1544,"x_min":0,"x_max":1389,"o":"m 0 0 l 0 1215 l 174 1389 l 608 1389 l 694 1215 l 781 1389 l 1215 1389 l 1389 1215 l 1389 0 l 1042 0 l 1042 1042 l 868 1042 l 868 0 l 521 0 l 521 1042 l 347 1042 l 347 0 l 0 0 z "},"n":{"ha":1370,"x_min":0,"x_max":1215,"o":"m 0 0 l 0 1389 l 434 1389 l 868 521 l 868 1389 l 1215 1389 l 1215 0 l 781 0 l 347 868 l 347 0 l 0 0 z "},"o":{"ha":1370,"x_min":0,"x_max":1215,"o":"m 868 347 l 868 1042 l 347 1042 l 347 347 l 868 347 m 174 0 l 0 174 l 0 1215 l 174 1389 l 1042 1389 l 1215 1215 l 1215 174 l 1042 0 l 174 0 z "},"p":{"ha":1370,"x_min":0,"x_max":1215,"o":"m 868 868 l 868 1042 l 347 1042 l 347 868 l 868 868 m 0 0 l 0 1389 l 1042 1389 l 1215 1215 l 1215 694 l 1042 521 l 347 521 l 347 0 l 0 0 z "},"q":{"ha":1370,"x_min":0,"x_max":1215,"o":"m 868 347 l 868 1042 l 347 1042 l 347 347 l 868 347 m 868 -347 l 521 0 l 174 0 l 0 174 l 0 1215 l 174 1389 l 1042 1389 l 1215 1215 l 1215 174 l 1042 0 l 868 0 l 868 -347 l 868 -347 z "},"r":{"ha":1370,"x_min":0,"x_max":1215,"o":"m 0 0 l 0 1389 l 1042 1389 l 1215 1215 l 1215 694 l 1042 521 l 955 521 l 1215 0 l 868 0 l 521 694 l 521 868 l 868 868 l 868 1042 l 347 1042 l 347 0 l 0 0 z "},"s":{"ha":1370,"x_min":0,"x_max":1215,"o":"m 0 0 l 0 347 l 868 347 l 868 521 l 174 521 l 0 694 l 0 1215 l 174 1389 l 1215 1389 l 1215 1042 l 347 1042 l 347 868 l 1215 868 l 1215 347 l 868 0 l 0 0 z "},"t":{"ha":1370,"x_min":0,"x_max":1215,"o":"m 434 0 l 434 1042 l 0 1042 l 0 1389 l 1215 1389 l 1215 1042 l 781 1042 l 781 0 l 434 0 z "},"u":{"ha":1370,"x_min":0,"x_max":1215,"o":"m 174 0 l 0 174 l 0 1389 l 347 1389 l 347 347 l 868 347 l 868 1389 l 1215 1389 l 1215 347 l 1042 0 l 174 0 z "},"v":{"ha":1891,"x_min":0,"x_max":1649,"o":"m 694 0 l 0 1389 l 434 1389 l 825 608 l 1215 1389 l 1649 1389 l 955 0 l 694 0 z "},"w":{"ha":1544,"x_min":0,"x_max":1389,"o":"m 174 0 l 0 174 l 0 1389 l 347 1389 l 347 347 l 521 347 l 521 1389 l 868 1389 l 868 347 l 1042 347 l 1042 1389 l 1389 1389 l 1389 174 l 1215 0 l 781 0 l 694 174 l 608 0 l 174 0 z "},"x":{"ha":1370,"x_min":0,"x_max":1215,"o":"m 0 0 l 347 694 l 0 1389 l 434 1389 l 608 1042 l 781 1389 l 1215 1389 l 868 694 l 1215 0 l 781 0 l 608 347 l 434 0 l 0 0 z "},"y":{"ha":1370,"x_min":0,"x_max":1215,"o":"m 0 0 l 347 694 l 0 1389 l 434 1389 l 608 1042 l 781 1389 l 1215 1389 l 521 0 l 0 0 z "},"z":{"ha":1370,"x_min":0,"x_max":1215,"o":"m 0 0 l 521 1042 l 0 1042 l 0 1389 l 1215 1389 l 694 347 l 1215 347 l 1215 0 l 0 0 z "}}}
